<svg width="139" height="82" viewBox="0 0 139 82" fill="none" xmlns="http://www.w3.org/2000/svg">
<path d="M50.359 18.8846C50.359 8.18333 58.5423 0 69.2436 0C79.9449 0 88.1282 8.18333 88.1282 18.8846C88.1282 29.5859 79.9449 37.7692 69.2436 37.7692C58.5423 37.7692 50.359 29.5859 50.359 18.8846ZM69.2436 50.359C40.2872 50.359 31.4744 71.132 31.4744 71.132V81.8333H107.013V71.132C107.013 71.132 98.2 50.359 69.2436 50.359Z" fill="white"/>
<path d="M110.16 31.4744C118.852 31.4744 125.897 24.4286 125.897 15.7372C125.897 7.04577 118.852 0 110.16 0C101.469 0 94.4231 7.04577 94.4231 15.7372C94.4231 24.4286 101.469 31.4744 110.16 31.4744Z" fill="white"/>
<path d="M110.16 44.0641C102.606 44.0641 96.9411 45.9525 92.5347 49.1C107.013 56.0243 112.678 67.9846 112.678 69.2436V69.8731H138.487V61.6897C138.487 61.0602 131.563 44.0641 110.16 44.0641Z" fill="white"/>
<path d="M110.16 31.4744C118.852 31.4744 125.897 24.4286 125.897 15.7372C125.897 7.04577 118.852 0 110.16 0C101.469 0 94.4231 7.04577 94.4231 15.7372C94.4231 24.4286 101.469 31.4744 110.16 31.4744Z" fill="white"/>
<path d="M110.16 44.0641C102.606 44.0641 96.9411 45.9525 92.5347 49.1C107.013 56.0243 112.678 67.9846 112.678 69.2436V69.8731H138.487V61.6897C138.487 61.0602 131.563 44.0641 110.16 44.0641Z" fill="white"/>
<path d="M28.3268 31.4744C37.0182 31.4744 44.064 24.4286 44.064 15.7372C44.064 7.04577 37.0182 0 28.3268 0C19.6354 0 12.5896 7.04577 12.5896 15.7372C12.5896 24.4286 19.6354 31.4744 28.3268 31.4744Z" fill="white"/>
<path d="M28.3269 44.0641C35.8808 44.0641 41.5462 45.9525 45.9526 49.1C31.4744 56.0243 25.809 67.9846 25.809 69.2436V69.8731H0V61.6897C0 61.0602 6.92436 44.0641 28.3269 44.0641Z" fill="white"/>
</svg>
