<svg width="100" height="100" viewBox="0 0 100 100" fill="none" xmlns="http://www.w3.org/2000/svg">
<rect width="100" height="100" rx="10" fill="black"/>
<path d="M50 50C48.5082 50 47.0774 50.5926 46.0225 51.6475C44.9676 52.7024 44.375 54.1332 44.375 55.625V61.25C44.375 61.623 44.5232 61.9806 44.7869 62.2444C45.0506 62.5081 45.4083 62.6562 45.7812 62.6562H54.2188C54.5917 62.6562 54.9494 62.5081 55.2131 62.2444C55.4768 61.9806 55.625 61.623 55.625 61.25V55.625C55.625 54.1332 55.0324 52.7024 53.9775 51.6475C52.9226 50.5926 51.4918 50 50 50ZM52.8125 59.8438H47.1875V55.625C47.1875 54.8791 47.4838 54.1637 48.0113 53.6363C48.5387 53.1088 49.2541 52.8125 50 52.8125C50.7459 52.8125 51.4613 53.1088 51.9887 53.6363C52.5162 54.1637 52.8125 54.8791 52.8125 55.625V59.8438Z" fill="#F47979"/>
<path d="M62.6562 61.25C62.6562 61.623 62.8044 61.9806 63.0681 62.2444C63.3319 62.5081 63.6895 62.6562 64.0625 62.6562H72.5C72.873 62.6562 73.2306 62.5081 73.4944 62.2444C73.7581 61.9806 73.9062 61.623 73.9062 61.25V55.625C73.9062 54.1332 73.3136 52.7024 72.2587 51.6475C71.2038 50.5926 69.7731 50 68.2812 50C66.7894 50 65.3587 50.5926 64.3038 51.6475C63.2489 52.7024 62.6562 54.1332 62.6562 55.625V61.25ZM65.4688 55.625C65.4688 54.8791 65.7651 54.1637 66.2925 53.6363C66.82 53.1088 67.5353 52.8125 68.2812 52.8125C69.0272 52.8125 69.7425 53.1088 70.27 53.6363C70.7974 54.1637 71.0938 54.8791 71.0938 55.625V59.8438H65.4688V55.625Z" fill="#F47979"/>
<path d="M31.7188 50C30.2269 50 28.7962 50.5926 27.7413 51.6475C26.6864 52.7024 26.0938 54.1332 26.0938 55.625V61.25C26.0938 61.623 26.2419 61.9806 26.5056 62.2444C26.7694 62.5081 27.127 62.6562 27.5 62.6562H35.9375C36.3105 62.6562 36.6681 62.5081 36.9319 62.2444C37.1956 61.9806 37.3438 61.623 37.3438 61.25V55.625C37.3438 54.1332 36.7511 52.7024 35.6962 51.6475C34.6413 50.5926 33.2106 50 31.7188 50ZM34.5312 59.8438H28.9062V55.625C28.9062 54.8791 29.2026 54.1637 29.73 53.6363C30.2575 53.1088 30.9728 52.8125 31.7188 52.8125C32.4647 52.8125 33.18 53.1088 33.7075 53.6363C34.2349 54.1637 34.5312 54.8791 34.5312 55.625V59.8438Z" fill="#F47979"/>
<path d="M27.5 41.5625H35.9375C36.3105 41.5625 36.6681 41.4143 36.9319 41.1506C37.1956 40.8869 37.3438 40.5292 37.3438 40.1562V34.5312C37.3438 33.0394 36.7511 31.6087 35.6962 30.5538C34.6413 29.4989 33.2106 28.9062 31.7188 28.9062C30.2269 28.9062 28.7962 29.4989 27.7413 30.5538C26.6864 31.6087 26.0938 33.0394 26.0938 34.5312V40.1562C26.0938 40.5292 26.2419 40.8869 26.5056 41.1506C26.7694 41.4143 27.127 41.5625 27.5 41.5625ZM28.9062 34.5312C28.9062 33.7853 29.2026 33.07 29.73 32.5425C30.2575 32.0151 30.9728 31.7188 31.7188 31.7188C32.4647 31.7188 33.18 32.0151 33.7075 32.5425C34.2349 33.07 34.5312 33.7853 34.5312 34.5312V38.75H28.9062V34.5312Z" fill="#F47979"/>
<path d="M50 71.0938C48.5082 71.0938 47.0774 71.6864 46.0225 72.7413C44.9676 73.7962 44.375 75.2269 44.375 76.7188V82.3438C44.375 82.7167 44.5232 83.0744 44.7869 83.3381C45.0506 83.6018 45.4083 83.75 45.7812 83.75H54.2188C54.5917 83.75 54.9494 83.6018 55.2131 83.3381C55.4768 83.0744 55.625 82.7167 55.625 82.3438V76.7188C55.625 75.2269 55.0324 73.7962 53.9775 72.7413C52.9226 71.6864 51.4918 71.0938 50 71.0938ZM52.8125 80.9375H47.1875V76.7188C47.1875 75.9728 47.4838 75.2575 48.0113 74.73C48.5387 74.2026 49.2541 73.9062 50 73.9062C50.7459 73.9062 51.4613 74.2026 51.9887 74.73C52.5162 75.2575 52.8125 75.9728 52.8125 76.7188V80.9375Z" fill="#F47979"/>
<path d="M68.2812 71.0938C66.7894 71.0938 65.3587 71.6864 64.3038 72.7413C63.2489 73.7962 62.6562 75.2269 62.6562 76.7188V82.3438C62.6562 82.7167 62.8044 83.0744 63.0681 83.3381C63.3319 83.6018 63.6895 83.75 64.0625 83.75H72.5C72.873 83.75 73.2306 83.6018 73.4944 83.3381C73.7581 83.0744 73.9062 82.7167 73.9062 82.3438V76.7188C73.9062 75.2269 73.3136 73.7962 72.2587 72.7413C71.2038 71.6864 69.7731 71.0938 68.2812 71.0938ZM71.0938 80.9375H65.4688V76.7188C65.4688 75.9728 65.7651 75.2575 66.2925 74.73C66.82 74.2026 67.5353 73.9062 68.2812 73.9062C69.0272 73.9062 69.7425 74.2026 70.27 74.73C70.7974 75.2575 71.0938 75.9728 71.0938 76.7188V80.9375Z" fill="#F47979"/>
<path d="M31.7188 71.0938C30.2269 71.0938 28.7962 71.6864 27.7413 72.7413C26.6864 73.7962 26.0938 75.2269 26.0938 76.7188V82.3438C26.0938 82.7167 26.2419 83.0744 26.5056 83.3381C26.7694 83.6018 27.127 83.75 27.5 83.75H35.9375C36.3105 83.75 36.6681 83.6018 36.9319 83.3381C37.1956 83.0744 37.3438 82.7167 37.3438 82.3438V76.7188C37.3438 75.2269 36.7511 73.7962 35.6962 72.7413C34.6413 71.6864 33.2106 71.0938 31.7188 71.0938ZM34.5312 80.9375H28.9062V76.7188C28.9062 75.9728 29.2026 75.2575 29.73 74.73C30.2575 74.2026 30.9728 73.9062 31.7188 73.9062C32.4647 73.9062 33.18 74.2026 33.7075 74.73C34.2349 75.2575 34.5312 75.9728 34.5312 76.7188V80.9375Z" fill="#F47979"/>
<path d="M89.375 87.9688H85.1562V45.7813C85.1562 45.4083 85.0081 45.0506 84.7444 44.7869C84.4806 44.5232 84.123 44.375 83.75 44.375H64.6391L43.9672 23.6891C43.8358 23.5588 43.68 23.4556 43.5086 23.3857C43.3373 23.3157 43.1538 23.2802 42.9688 23.2813H16.25C15.877 23.2813 15.5194 23.4294 15.2556 23.6932C14.9919 23.9569 14.8438 24.3146 14.8438 24.6875V87.9688H10.625C10.252 87.9688 9.89435 88.1169 9.63063 88.3807C9.36691 88.6444 9.21875 89.0021 9.21875 89.375C9.21875 89.748 9.36691 90.1057 9.63063 90.3694C9.89435 90.6331 10.252 90.7813 10.625 90.7813H89.375C89.748 90.7813 90.1056 90.6331 90.3694 90.3694C90.6331 90.1057 90.7812 89.748 90.7812 89.375C90.7812 89.0021 90.6331 88.6444 90.3694 88.3807C90.1056 88.1169 89.748 87.9688 89.375 87.9688ZM17.6562 68.2813H82.3438V86.5625H17.6562V68.2813ZM82.3438 65.4688H17.6562V47.1875H82.3438V65.4688ZM42.3922 26.0938L60.6734 44.375H17.6562V26.0938H42.3922Z" fill="#F47979"/>
</svg>
