<svg width="60" height="60" viewBox="0 0 60 60" fill="none" xmlns="http://www.w3.org/2000/svg">
<path d="M4 48V30.4C4 23.3983 6.73928 16.6833 11.6152 11.7324C16.4912 6.78142 23.1044 4 30 4C36.8956 4 43.5088 6.78142 48.3848 11.7324C53.2607 16.6833 56 23.3983 56 30.4V48" stroke="black" stroke-width="6" stroke-linecap="round" stroke-linejoin="round"/>
<path d="M56 50.2857C56 51.8012 55.3913 53.2547 54.3077 54.3263C53.2242 55.398 51.7546 56 50.2222 56H47.3333C45.801 56 44.3314 55.398 43.2478 54.3263C42.1643 53.2547 41.5556 51.8012 41.5556 50.2857V41.7143C41.5556 40.1988 42.1643 38.7453 43.2478 37.6737C44.3314 36.602 45.801 36 47.3333 36H56V50.2857ZM4 50.2857C4 51.8012 4.60873 53.2547 5.69227 54.3263C6.77582 55.398 8.24542 56 9.77778 56H12.6667C14.199 56 15.6686 55.398 16.7522 54.3263C17.8357 53.2547 18.4444 51.8012 18.4444 50.2857V41.7143C18.4444 40.1988 17.8357 38.7453 16.7522 37.6737C15.6686 36.602 14.199 36 12.6667 36H4V50.2857Z" stroke="black" stroke-width="6" stroke-linecap="round" stroke-linejoin="round"/>
</svg>
