<svg width="175" height="60" viewBox="0 0 175 60" fill="none" xmlns="http://www.w3.org/2000/svg">
<path fill-rule="evenodd" clip-rule="evenodd" d="M145.115 12.9431C142.382 12.7908 139.352 13.0215 137.217 13.6191L123.783 17.3809C120.581 18.2772 118 21.6864 118 25.0002V51H171V30.7919C165.394 29.448 157.92 27.6586 157.707 27.6192C157.366 27.556 150.498 25.5749 150.498 25.5749L148.995 17.6759L145.115 12.9431Z" fill="#E0AC98" stroke="#E0AC98" stroke-width="2" stroke-linecap="round" stroke-linejoin="round"/>
<path fill-rule="evenodd" clip-rule="evenodd" d="M116 53C116 51.8954 116.895 51 117.995 51H171.005C172.107 51 173 51.8877 173 53C173 54.1046 172.105 55 171.005 55H117.995C116.893 55 116 54.1123 116 53Z" fill="#A48659" stroke="#A48659" stroke-width="2" stroke-linecap="round" stroke-linejoin="round"/>
<path fill-rule="evenodd" clip-rule="evenodd" d="M122 35.5098C122 34.1237 123.11 33 124.5 33C125.881 33 127 34.1286 127 35.5098V39H122V35.5098ZM122 24.5098C122 23.1237 123.11 22 124.5 22C125.881 22 127 23.1286 127 24.5098V28H122V24.5098ZM132 35.5098C132 34.1237 133.11 33 134.5 33C135.881 33 137 34.1286 137 35.5098V39H132V35.5098ZM152 35.5098C152 34.1237 153.11 33 154.5 33C155.881 33 157 34.1286 157 35.5098V39H152V35.5098ZM152 46.5098C152 45.1237 153.11 44 154.5 44C155.881 44 157 45.1286 157 46.5098V50H152V46.5098ZM162 35.5098C162 34.1237 163.11 33 164.5 33C165.881 33 167 34.1286 167 35.5098V39H162V35.5098ZM132 24.5098C132 23.1237 133.11 22 134.5 22C135.881 22 137 23.1286 137 24.5098V28H132V24.5098ZM142 35.5098C142 34.1237 143.11 33 144.5 33C145.881 33 147 34.1286 147 35.5098V39H142V35.5098ZM122 46.5098C122 45.1237 123.11 44 124.5 44C125.881 44 127 45.1286 127 46.5098V50H122V46.5098ZM132 46.5098C132 45.1237 133.11 44 134.5 44C135.881 44 137 45.1286 137 46.5098V50H132V46.5098ZM162 46.5098C162 45.1237 163.11 44 164.5 44C165.881 44 167 45.1286 167 46.5098V50H162V46.5098ZM142 46.5098C142 45.1237 143.11 44 144.5 44C145.881 44 147 45.1286 147 46.5098V50H142V46.5098ZM142 24.5098C142 23.1237 143.11 22 144.5 22C145.881 22 147 23.1286 147 24.5098V28H142V24.5098Z" fill="white"/>
<mask id="path-4-outside-1_4_2" maskUnits="userSpaceOnUse" x="0" y="29" width="48" height="26" fill="black">
<rect fill="white" y="29" width="48" height="26"/>
<path d="M1.89291 53V30.32H12.3929V34.044H6.90491V53H1.89291ZM21.2658 53.336C19.5672 53.336 18.2232 53.0373 17.2338 52.44C16.2445 51.8427 15.5352 50.984 15.1058 49.864C14.6765 48.744 14.4618 47.4093 14.4618 45.86V37.432C14.4618 35.864 14.6765 34.5293 15.1058 33.428C15.5352 32.3267 16.2445 31.4867 17.2338 30.908C18.2232 30.3107 19.5672 30.012 21.2658 30.012C22.9832 30.012 24.3365 30.3107 25.3258 30.908C26.3338 31.4867 27.0525 32.3267 27.4818 33.428C27.9112 34.5293 28.1258 35.864 28.1258 37.432V45.86C28.1258 47.4093 27.9112 48.744 27.4818 49.864C27.0525 50.984 26.3338 51.8427 25.3258 52.44C24.3365 53.0373 22.9832 53.336 21.2658 53.336ZM21.2658 49.78C21.7885 49.78 22.1712 49.6493 22.4138 49.388C22.6565 49.1267 22.8152 48.7907 22.8898 48.38C22.9645 47.9693 23.0018 47.5493 23.0018 47.12V36.2C23.0018 35.752 22.9645 35.332 22.8898 34.94C22.8152 34.5293 22.6565 34.1933 22.4138 33.932C22.1712 33.6707 21.7885 33.54 21.2658 33.54C20.7805 33.54 20.4165 33.6707 20.1738 33.932C19.9312 34.1933 19.7725 34.5293 19.6978 34.94C19.6232 35.332 19.5858 35.752 19.5858 36.2V47.12C19.5858 47.5493 19.6138 47.9693 19.6698 48.38C19.7445 48.7907 19.8938 49.1267 20.1178 49.388C20.3605 49.6493 20.7432 49.78 21.2658 49.78ZM29.6921 53V49.472C30.3268 49.472 30.8401 49.4347 31.2321 49.36C31.6241 49.2667 31.9321 49.0613 32.1561 48.744C32.3801 48.4267 32.5574 47.9413 32.6881 47.288C32.8188 46.6347 32.9214 45.7573 32.9961 44.656C33.0894 43.5547 33.2014 42.1547 33.3321 40.456L34.0601 30.32H46.0721V53H41.0881V34.156H38.5961L38.1481 41.408C38.0174 43.2747 37.8868 44.8893 37.7561 46.252C37.6254 47.596 37.4108 48.7253 37.1121 49.64C36.8321 50.5547 36.4028 51.2733 35.8241 51.796C35.2641 52.3 34.4894 52.6453 33.5001 52.832C32.5108 53.0187 31.2414 53.0747 29.6921 53Z"/>
</mask>
<path d="M1.89291 53V30.32H12.3929V34.044H6.90491V53H1.89291ZM21.2658 53.336C19.5672 53.336 18.2232 53.0373 17.2338 52.44C16.2445 51.8427 15.5352 50.984 15.1058 49.864C14.6765 48.744 14.4618 47.4093 14.4618 45.86V37.432C14.4618 35.864 14.6765 34.5293 15.1058 33.428C15.5352 32.3267 16.2445 31.4867 17.2338 30.908C18.2232 30.3107 19.5672 30.012 21.2658 30.012C22.9832 30.012 24.3365 30.3107 25.3258 30.908C26.3338 31.4867 27.0525 32.3267 27.4818 33.428C27.9112 34.5293 28.1258 35.864 28.1258 37.432V45.86C28.1258 47.4093 27.9112 48.744 27.4818 49.864C27.0525 50.984 26.3338 51.8427 25.3258 52.44C24.3365 53.0373 22.9832 53.336 21.2658 53.336ZM21.2658 49.78C21.7885 49.78 22.1712 49.6493 22.4138 49.388C22.6565 49.1267 22.8152 48.7907 22.8898 48.38C22.9645 47.9693 23.0018 47.5493 23.0018 47.12V36.2C23.0018 35.752 22.9645 35.332 22.8898 34.94C22.8152 34.5293 22.6565 34.1933 22.4138 33.932C22.1712 33.6707 21.7885 33.54 21.2658 33.54C20.7805 33.54 20.4165 33.6707 20.1738 33.932C19.9312 34.1933 19.7725 34.5293 19.6978 34.94C19.6232 35.332 19.5858 35.752 19.5858 36.2V47.12C19.5858 47.5493 19.6138 47.9693 19.6698 48.38C19.7445 48.7907 19.8938 49.1267 20.1178 49.388C20.3605 49.6493 20.7432 49.78 21.2658 49.78ZM29.6921 53V49.472C30.3268 49.472 30.8401 49.4347 31.2321 49.36C31.6241 49.2667 31.9321 49.0613 32.1561 48.744C32.3801 48.4267 32.5574 47.9413 32.6881 47.288C32.8188 46.6347 32.9214 45.7573 32.9961 44.656C33.0894 43.5547 33.2014 42.1547 33.3321 40.456L34.0601 30.32H46.0721V53H41.0881V34.156H38.5961L38.1481 41.408C38.0174 43.2747 37.8868 44.8893 37.7561 46.252C37.6254 47.596 37.4108 48.7253 37.1121 49.64C36.8321 50.5547 36.4028 51.2733 35.8241 51.796C35.2641 52.3 34.4894 52.6453 33.5001 52.832C32.5108 53.0187 31.2414 53.0747 29.6921 53Z" fill="#4DCB00"/>
<path d="M1.89291 53H0.892906V54H1.89291V53ZM1.89291 30.32V29.32H0.892906V30.32H1.89291ZM12.3929 30.32H13.3929V29.32H12.3929V30.32ZM12.3929 34.044V35.044H13.3929V34.044H12.3929ZM6.90491 34.044V33.044H5.90491V34.044H6.90491ZM6.90491 53V54H7.90491V53H6.90491ZM2.89291 53V30.32H0.892906V53H2.89291ZM1.89291 31.32H12.3929V29.32H1.89291V31.32ZM11.3929 30.32V34.044H13.3929V30.32H11.3929ZM12.3929 33.044H6.90491V35.044H12.3929V33.044ZM5.90491 34.044V53H7.90491V34.044H5.90491ZM6.90491 52H1.89291V54H6.90491V52ZM17.2338 52.44L16.717 53.2961L17.2338 52.44ZM15.1058 33.428L14.1741 33.0648L15.1058 33.428ZM17.2338 30.908L17.7388 31.7713L17.7507 31.7641L17.2338 30.908ZM25.3258 30.908L24.809 31.7641L24.8184 31.7698L24.828 31.7753L25.3258 30.908ZM27.4818 33.428L26.5501 33.7912L27.4818 33.428ZM27.4818 49.864L26.5481 49.5061L27.4818 49.864ZM25.3258 52.44L24.816 51.5797L24.809 51.5839L25.3258 52.44ZM22.4138 49.388L21.6811 48.7075L21.681 48.7076L22.4138 49.388ZM22.8898 48.38L23.8737 48.5589V48.5589L22.8898 48.38ZM22.8898 34.94L21.9059 35.1189L21.9075 35.1271L22.8898 34.94ZM22.4138 33.932L21.681 34.6124L21.6811 34.6124L22.4138 33.932ZM20.1738 33.932L20.9066 34.6124L20.9066 34.6124L20.1738 33.932ZM19.6978 34.94L20.6802 35.1271L20.6817 35.1189L19.6978 34.94ZM19.6698 48.38L18.679 48.5151L18.682 48.5371L18.686 48.5589L19.6698 48.38ZM20.1178 49.388L19.3586 50.0388L19.3715 50.0539L19.385 50.0685L20.1178 49.388ZM21.2658 52.336C19.6692 52.336 18.5274 52.0529 17.7507 51.5839L16.717 53.2961C17.919 54.0218 19.4652 54.336 21.2658 54.336V52.336ZM17.7507 51.5839C16.9595 51.1062 16.3925 50.4267 16.0396 49.5061L14.1721 50.2219C14.6778 51.5413 15.5295 52.5791 16.717 53.2961L17.7507 51.5839ZM16.0396 49.5061C15.6648 48.5282 15.4618 47.3209 15.4618 45.86H13.4618C13.4618 47.4977 13.6883 48.9598 14.1721 50.2219L16.0396 49.5061ZM15.4618 45.86V37.432H13.4618V45.86H15.4618ZM15.4618 37.432C15.4618 35.95 15.6654 34.7458 16.0376 33.7912L14.1741 33.0648C13.6876 34.3129 13.4618 35.778 13.4618 37.432H15.4618ZM16.0376 33.7912C16.3878 32.8928 16.9504 32.2323 17.7387 31.7712L16.729 30.0448C15.5386 30.7411 14.6826 31.7606 14.1741 33.0648L16.0376 33.7912ZM17.7507 31.7641C18.5274 31.2951 19.6692 31.012 21.2658 31.012V29.012C19.4652 29.012 17.919 29.3262 16.717 30.0519L17.7507 31.7641ZM21.2658 31.012C22.8836 31.012 24.0337 31.296 24.809 31.7641L25.8427 30.0519C24.6393 29.3253 23.0828 29.012 21.2658 29.012V31.012ZM24.828 31.7753C25.6345 32.2382 26.2021 32.8985 26.5501 33.7912L28.4136 33.0648C27.9029 31.7548 27.0332 30.7351 25.8237 30.0407L24.828 31.7753ZM26.5501 33.7912C26.9223 34.7458 27.1258 35.95 27.1258 37.432H29.1258C29.1258 35.778 28.9001 34.3129 28.4136 33.0648L26.5501 33.7912ZM27.1258 37.432V45.86H29.1258V37.432H27.1258ZM27.1258 45.86C27.1258 47.3209 26.9229 48.5282 26.5481 49.5061L28.4156 50.2219C28.8994 48.9598 29.1258 47.4977 29.1258 45.86H27.1258ZM26.5481 49.5061C26.1974 50.421 25.6252 51.1002 24.816 51.5797L25.8356 53.3003C27.0425 52.5851 27.9077 51.547 28.4156 50.2219L26.5481 49.5061ZM24.809 51.5839C24.0337 52.052 22.8836 52.336 21.2658 52.336V54.336C23.0828 54.336 24.6393 54.0227 25.8427 53.2961L24.809 51.5839ZM21.2658 50.78C21.936 50.78 22.6412 50.6128 23.1466 50.0685L21.681 48.7076C21.7012 48.6859 21.6411 48.78 21.2658 48.78V50.78ZM23.1466 50.0685C23.54 49.6449 23.7708 49.1247 23.8737 48.5589L21.906 48.2011C21.8595 48.4566 21.7731 48.6085 21.6811 48.7075L23.1466 50.0685ZM23.8737 48.5589C23.9594 48.0875 24.0018 47.6076 24.0018 47.12H22.0018C22.0018 47.4911 21.9696 47.8511 21.906 48.2011L23.8737 48.5589ZM24.0018 47.12V36.2H22.0018V47.12H24.0018ZM24.0018 36.2C24.0018 35.6967 23.9599 35.2135 23.8722 34.7529L21.9075 35.1271C21.9691 35.4505 22.0018 35.8073 22.0018 36.2H24.0018ZM23.8737 34.7611C23.7708 34.1953 23.54 33.6751 23.1466 33.2515L21.6811 34.6124C21.7731 34.7115 21.8595 34.8634 21.906 35.1189L23.8737 34.7611ZM23.1466 33.2515C22.6412 32.7072 21.936 32.54 21.2658 32.54V34.54C21.6411 34.54 21.7012 34.6341 21.681 34.6124L23.1466 33.2515ZM21.2658 32.54C20.6066 32.54 19.9337 32.721 19.441 33.2515L20.9066 34.6124C20.9101 34.6088 20.9223 34.5951 20.9667 34.5792C21.0167 34.5613 21.1102 34.54 21.2658 34.54V32.54ZM19.4411 33.2515C19.0477 33.6751 18.8168 34.1953 18.714 34.7611L20.6817 35.1189C20.7282 34.8634 20.8146 34.7115 20.9066 34.6124L19.4411 33.2515ZM18.7155 34.7529C18.6278 35.2135 18.5858 35.6967 18.5858 36.2H20.5858C20.5858 35.8073 20.6186 35.4505 20.6802 35.1271L18.7155 34.7529ZM18.5858 36.2V47.12H20.5858V36.2H18.5858ZM18.5858 47.12C18.5858 47.5929 18.6167 48.0581 18.679 48.5151L20.6607 48.2449C20.611 47.8806 20.5858 47.5058 20.5858 47.12H18.5858ZM18.686 48.5589C18.7856 49.1069 18.9969 49.6169 19.3586 50.0388L20.8771 48.7372C20.7907 48.6365 20.7034 48.4744 20.6537 48.2011L18.686 48.5589ZM19.385 50.0685C19.8905 50.6128 20.5957 50.78 21.2658 50.78V48.78C20.8906 48.78 20.8305 48.6859 20.8506 48.7076L19.385 50.0685ZM29.6921 53H28.6921V53.953L29.644 53.9988L29.6921 53ZM29.6921 49.472V48.472H28.6921V49.472H29.6921ZM31.2321 49.36L31.4192 50.3423L31.4416 50.3381L31.4637 50.3328L31.2321 49.36ZM32.9961 44.656L31.9997 44.5716L31.999 44.58L31.9984 44.5884L32.9961 44.656ZM33.3321 40.456L34.3292 40.5327L34.3295 40.5276L33.3321 40.456ZM34.0601 30.32V29.32H33.1293L33.0627 30.2484L34.0601 30.32ZM46.0721 30.32H47.0721V29.32H46.0721V30.32ZM46.0721 53V54H47.0721V53H46.0721ZM41.0881 53H40.0881V54H41.0881V53ZM41.0881 34.156H42.0881V33.156H41.0881V34.156ZM38.5961 34.156V33.156H37.656L37.598 34.0943L38.5961 34.156ZM38.1481 41.408L39.1457 41.4778L39.1462 41.4697L38.1481 41.408ZM37.7561 46.252L38.7514 46.3488L38.7515 46.3475L37.7561 46.252ZM37.1121 49.64L36.1615 49.3296L36.1586 49.3384L36.1559 49.3473L37.1121 49.64ZM35.8241 51.796L36.4931 52.5393L36.4944 52.5381L35.8241 51.796ZM33.5001 52.832L33.6855 53.8147L33.5001 52.832ZM30.6921 53V49.472H28.6921V53H30.6921ZM29.6921 50.472C30.3575 50.472 30.9405 50.4335 31.4192 50.3423L31.045 48.3777C30.7397 48.4358 30.2961 48.472 29.6921 48.472V50.472ZM31.4637 50.3328C32.0828 50.1854 32.603 49.8449 32.9731 49.3207L31.3391 48.1673C31.2612 48.2778 31.1653 48.3479 31.0005 48.3872L31.4637 50.3328ZM32.9731 49.3207C33.3156 48.8355 33.5275 48.1901 33.6687 47.4841L31.7075 47.0919C31.5874 47.6925 31.4446 48.0179 31.3391 48.1673L32.9731 49.3207ZM33.6687 47.4841C33.8115 46.7699 33.9178 45.8441 33.9938 44.7236L31.9984 44.5884C31.925 45.6706 31.826 46.4994 31.7075 47.0919L33.6687 47.4841ZM33.9925 44.7404C34.0862 43.6355 34.1984 42.2327 34.3291 40.5327L32.335 40.3793C32.2045 42.0766 32.0927 43.4738 31.9997 44.5716L33.9925 44.7404ZM34.3295 40.5276L35.0575 30.3916L33.0627 30.2484L32.3347 40.3844L34.3295 40.5276ZM34.0601 31.32H46.0721V29.32H34.0601V31.32ZM45.0721 30.32V53H47.0721V30.32H45.0721ZM46.0721 52H41.0881V54H46.0721V52ZM42.0881 53V34.156H40.0881V53H42.0881ZM41.0881 33.156H38.5961V35.156H41.0881V33.156ZM37.598 34.0943L37.15 41.3463L39.1462 41.4697L39.5942 34.2177L37.598 34.0943ZM37.1505 41.3382C37.0203 43.1991 36.8903 44.8049 36.7607 46.1565L38.7515 46.3475C38.8832 44.9738 39.0146 43.3502 39.1457 41.4778L37.1505 41.3382ZM36.7608 46.1552C36.6346 47.4533 36.4305 48.5058 36.1615 49.3296L38.0627 49.9504C38.391 48.9448 38.6163 47.7387 38.7514 46.3488L36.7608 46.1552ZM36.1559 49.3473C35.9169 50.1282 35.5709 50.6772 35.1538 51.0539L36.4944 52.5381C37.2346 51.8695 37.7473 50.9812 38.0683 49.9327L36.1559 49.3473ZM35.1551 51.0527C34.7698 51.3995 34.1827 51.6856 33.3147 51.8493L33.6855 53.8147C34.7961 53.6051 35.7584 53.2005 36.4931 52.5393L35.1551 51.0527ZM33.3147 51.8493C32.4319 52.0159 31.2486 52.0738 29.7402 52.0012L29.644 53.9988C31.2343 54.0755 32.5897 54.0214 33.6855 53.8147L33.3147 51.8493Z" fill="black" mask="url(#path-4-outside-1_4_2)"/>
<mask id="path-6-outside-2_4_2" maskUnits="userSpaceOnUse" x="65" y="29" width="50" height="25" fill="black">
<rect fill="white" x="65" y="29" width="50" height="25"/>
<path d="M66.1937 53V30.32H72.1017C73.0723 30.32 73.987 30.3947 74.8457 30.544C75.723 30.6933 76.4977 30.9827 77.1697 31.412C77.8417 31.8227 78.3643 32.42 78.7377 33.204C79.1297 33.9693 79.3257 34.9867 79.3257 36.256C79.3257 37.1707 79.1857 37.9453 78.9057 38.58C78.6443 39.196 78.2617 39.6907 77.7577 40.064C77.2723 40.4373 76.6843 40.6893 75.9937 40.82C76.871 40.932 77.6083 41.2213 78.2057 41.688C78.803 42.136 79.251 42.7427 79.5497 43.508C79.867 44.2733 80.0257 45.1973 80.0257 46.28C80.0257 47.456 79.867 48.4733 79.5497 49.332C79.251 50.172 78.8123 50.8627 78.2337 51.404C77.655 51.9453 76.9363 52.3467 76.0777 52.608C75.2377 52.8693 74.267 53 73.1657 53H66.1937ZM71.2057 49.5H72.2697C73.371 49.5 74.127 49.22 74.5377 48.66C74.967 48.1 75.1817 47.2787 75.1817 46.196C75.1817 45.3373 75.0883 44.656 74.9017 44.152C74.715 43.648 74.407 43.284 73.9777 43.06C73.5483 42.8173 72.9697 42.696 72.2417 42.696H71.2057V49.5ZM71.2057 39.392H72.1857C72.951 39.392 73.5297 39.28 73.9217 39.056C74.3137 38.8133 74.575 38.468 74.7057 38.02C74.855 37.572 74.9297 37.0307 74.9297 36.396C74.9297 35.7987 74.8177 35.304 74.5937 34.912C74.3883 34.5013 74.071 34.1933 73.6417 33.988C73.231 33.7827 72.7083 33.68 72.0737 33.68H71.2057V39.392ZM82.7386 53V30.32H87.7506V39.504H91.2506V30.32H96.2906V53H91.2506V43.088H87.7506V53H82.7386ZM98.6525 53L102.936 30.32H108.648L112.876 53H108.256L107.5 48.212H104.168L103.384 53H98.6525ZM104.616 45.216H107.024L105.82 36.368L104.616 45.216Z"/>
</mask>
<path d="M66.1937 53V30.32H72.1017C73.0723 30.32 73.987 30.3947 74.8457 30.544C75.723 30.6933 76.4977 30.9827 77.1697 31.412C77.8417 31.8227 78.3643 32.42 78.7377 33.204C79.1297 33.9693 79.3257 34.9867 79.3257 36.256C79.3257 37.1707 79.1857 37.9453 78.9057 38.58C78.6443 39.196 78.2617 39.6907 77.7577 40.064C77.2723 40.4373 76.6843 40.6893 75.9937 40.82C76.871 40.932 77.6083 41.2213 78.2057 41.688C78.803 42.136 79.251 42.7427 79.5497 43.508C79.867 44.2733 80.0257 45.1973 80.0257 46.28C80.0257 47.456 79.867 48.4733 79.5497 49.332C79.251 50.172 78.8123 50.8627 78.2337 51.404C77.655 51.9453 76.9363 52.3467 76.0777 52.608C75.2377 52.8693 74.267 53 73.1657 53H66.1937ZM71.2057 49.5H72.2697C73.371 49.5 74.127 49.22 74.5377 48.66C74.967 48.1 75.1817 47.2787 75.1817 46.196C75.1817 45.3373 75.0883 44.656 74.9017 44.152C74.715 43.648 74.407 43.284 73.9777 43.06C73.5483 42.8173 72.9697 42.696 72.2417 42.696H71.2057V49.5ZM71.2057 39.392H72.1857C72.951 39.392 73.5297 39.28 73.9217 39.056C74.3137 38.8133 74.575 38.468 74.7057 38.02C74.855 37.572 74.9297 37.0307 74.9297 36.396C74.9297 35.7987 74.8177 35.304 74.5937 34.912C74.3883 34.5013 74.071 34.1933 73.6417 33.988C73.231 33.7827 72.7083 33.68 72.0737 33.68H71.2057V39.392ZM82.7386 53V30.32H87.7506V39.504H91.2506V30.32H96.2906V53H91.2506V43.088H87.7506V53H82.7386ZM98.6525 53L102.936 30.32H108.648L112.876 53H108.256L107.5 48.212H104.168L103.384 53H98.6525ZM104.616 45.216H107.024L105.82 36.368L104.616 45.216Z" fill="#D50000"/>
<path d="M66.1937 53H65.1937V54H66.1937V53ZM66.1937 30.32V29.32H65.1937V30.32H66.1937ZM74.8457 30.544L74.6743 31.5292L74.6779 31.5298L74.8457 30.544ZM77.1697 31.412L76.6313 32.2547L76.6397 32.2601L76.6482 32.2653L77.1697 31.412ZM78.7377 33.204L77.8348 33.6339L77.841 33.647L77.8476 33.6599L78.7377 33.204ZM78.9057 38.58L77.9908 38.1764L77.9879 38.1829L77.9851 38.1894L78.9057 38.58ZM77.7577 40.064L77.1624 39.2604L77.1552 39.2658L77.148 39.2714L77.7577 40.064ZM75.9937 40.82L75.8078 39.8374L75.867 41.8119L75.9937 40.82ZM78.2057 41.688L77.59 42.476L77.5978 42.4821L77.6057 42.488L78.2057 41.688ZM79.5497 43.508L78.6181 43.8715L78.6219 43.8813L78.6259 43.891L79.5497 43.508ZM79.5497 49.332L78.6116 48.9853L78.6075 48.997L79.5497 49.332ZM78.2337 51.404L77.5505 50.6737L78.2337 51.404ZM76.0777 52.608L75.7865 51.6513L75.7806 51.6531L76.0777 52.608ZM71.2057 49.5H70.2057V50.5H71.2057V49.5ZM74.5377 48.66L73.7441 48.0516L73.7376 48.06L73.7313 48.0686L74.5377 48.66ZM73.9777 43.06L73.4856 43.9306L73.5002 43.9388L73.5151 43.9466L73.9777 43.06ZM71.2057 42.696V41.696H70.2057V42.696H71.2057ZM71.2057 39.392H70.2057V40.392H71.2057V39.392ZM73.9217 39.056L74.4178 39.9242L74.4331 39.9155L74.448 39.9063L73.9217 39.056ZM74.7057 38.02L73.757 37.7038L73.751 37.7218L73.7457 37.74L74.7057 38.02ZM74.5937 34.912L73.6992 35.3592L73.7117 35.384L73.7254 35.4081L74.5937 34.912ZM73.6417 33.988L73.1945 34.8824L73.2023 34.8863L73.2102 34.8901L73.6417 33.988ZM71.2057 33.68V32.68H70.2057V33.68H71.2057ZM67.1937 53V30.32H65.1937V53H67.1937ZM66.1937 31.32H72.1017V29.32H66.1937V31.32ZM72.1017 31.32C73.0213 31.32 73.8782 31.3908 74.6743 31.5292L75.017 29.5588C74.0958 29.3986 73.1234 29.32 72.1017 29.32V31.32ZM74.6779 31.5298C75.4387 31.6593 76.0844 31.9053 76.6313 32.2547L77.7081 30.5693C76.911 30.06 76.0074 29.7273 75.0135 29.5582L74.6779 31.5298ZM76.6482 32.2653C77.1379 32.5645 77.536 33.0064 77.8348 33.6339L79.6405 32.7741C79.1927 31.8336 78.5454 31.0808 77.6911 30.5587L76.6482 32.2653ZM77.8476 33.6599C78.1412 34.233 78.3257 35.0755 78.3257 36.256H80.3257C80.3257 34.8978 80.1182 33.7057 79.6277 32.7481L77.8476 33.6599ZM78.3257 36.256C78.3257 37.0738 78.1998 37.7025 77.9908 38.1764L79.8206 38.9836C80.1715 38.1882 80.3257 37.2675 80.3257 36.256H78.3257ZM77.9851 38.1894C77.7886 38.6526 77.5135 39.0004 77.1624 39.2604L78.3529 40.8676C79.0099 40.3809 79.5001 39.7394 79.8263 38.9705L77.9851 38.1894ZM77.148 39.2714C76.8043 39.5357 76.3671 39.7316 75.8078 39.8374L76.1796 41.8026C77.0015 41.6471 77.7404 41.3389 78.3674 40.8566L77.148 39.2714ZM75.867 41.8119C76.5961 41.905 77.1566 42.1374 77.59 42.476L78.8213 40.9C78.0601 40.3053 77.1459 39.959 76.1203 39.828L75.867 41.8119ZM77.6057 42.488C78.0393 42.8132 78.3801 43.2617 78.6181 43.8715L80.4812 43.1445C80.1219 42.2236 79.5668 41.4588 78.8057 40.888L77.6057 42.488ZM78.6259 43.891C78.8801 44.5039 79.0257 45.2904 79.0257 46.28H81.0257C81.0257 45.1043 80.854 44.0428 80.4734 43.125L78.6259 43.891ZM79.0257 46.28C79.0257 47.3697 78.8782 48.2642 78.6117 48.9853L80.4877 49.6786C80.8558 48.6825 81.0257 47.5422 81.0257 46.28H79.0257ZM78.6075 48.997C78.3555 49.7055 77.9986 50.2546 77.5505 50.6737L78.9168 52.1343C79.6261 51.4708 80.1465 50.6385 80.4919 49.667L78.6075 48.997ZM77.5505 50.6737C77.0975 51.0975 76.5184 51.4286 75.7865 51.6513L76.3688 53.5647C77.3542 53.2648 78.2125 52.7931 78.9168 52.1343L77.5505 50.6737ZM75.7806 51.6531C75.0575 51.8781 74.1905 52 73.1657 52V54C74.3435 54 75.4179 53.8605 76.3747 53.5629L75.7806 51.6531ZM73.1657 52H66.1937V54H73.1657V52ZM71.2057 50.5H72.2697V48.5H71.2057V50.5ZM72.2697 50.5C73.4998 50.5 74.6556 50.1902 75.3441 49.2514L73.7313 48.0686C73.5984 48.2498 73.2422 48.5 72.2697 48.5V50.5ZM75.3313 49.2684C75.9491 48.4625 76.1817 47.3876 76.1817 46.196H74.1817C74.1817 47.1697 73.9849 47.7375 73.7441 48.0516L75.3313 49.2684ZM76.1817 46.196C76.1817 45.281 76.0844 44.4662 75.8394 43.8047L73.9639 44.4993C74.0923 44.8458 74.1817 45.3937 74.1817 46.196H76.1817ZM75.8394 43.8047C75.5769 43.0958 75.1141 42.525 74.4402 42.1734L73.5151 43.9466C73.7 44.043 73.8531 44.2002 73.9639 44.4993L75.8394 43.8047ZM74.4697 42.1894C73.8355 41.8309 73.0658 41.696 72.2417 41.696V43.696C72.8736 43.696 73.2612 43.8037 73.4856 43.9306L74.4697 42.1894ZM72.2417 41.696H71.2057V43.696H72.2417V41.696ZM70.2057 42.696V49.5H72.2057V42.696H70.2057ZM71.2057 40.392H72.1857V38.392H71.2057V40.392ZM72.1857 40.392C73.0186 40.392 73.8034 40.2753 74.4178 39.9242L73.4255 38.1878C73.2559 38.2847 72.8834 38.392 72.1857 38.392V40.392ZM74.448 39.9063C75.0529 39.5318 75.4668 38.9819 75.6657 38.3L73.7457 37.74C73.6832 37.9541 73.5745 38.0948 73.3953 38.2057L74.448 39.9063ZM75.6544 38.3362C75.8471 37.758 75.9297 37.1036 75.9297 36.396H73.9297C73.9297 36.9577 73.8629 37.386 73.757 37.7038L75.6544 38.3362ZM75.9297 36.396C75.9297 35.6791 75.7958 35.0001 75.4619 34.4159L73.7254 35.4081C73.8396 35.6079 73.9297 35.9182 73.9297 36.396H75.9297ZM75.4881 34.4648C75.1795 33.8475 74.6952 33.3834 74.0731 33.0859L73.2102 34.8901C73.4468 35.0033 73.5972 35.1551 73.6992 35.3592L75.4881 34.4648ZM74.0889 33.0936C73.4967 32.7975 72.8076 32.68 72.0737 32.68V34.68C72.6091 34.68 72.9653 34.7679 73.1945 34.8824L74.0889 33.0936ZM72.0737 32.68H71.2057V34.68H72.0737V32.68ZM70.2057 33.68V39.392H72.2057V33.68H70.2057ZM82.7386 53H81.7386V54H82.7386V53ZM82.7386 30.32V29.32H81.7386V30.32H82.7386ZM87.7506 30.32H88.7506V29.32H87.7506V30.32ZM87.7506 39.504H86.7506V40.504H87.7506V39.504ZM91.2506 39.504V40.504H92.2506V39.504H91.2506ZM91.2506 30.32V29.32H90.2506V30.32H91.2506ZM96.2906 30.32H97.2906V29.32H96.2906V30.32ZM96.2906 53V54H97.2906V53H96.2906ZM91.2506 53H90.2506V54H91.2506V53ZM91.2506 43.088H92.2506V42.088H91.2506V43.088ZM87.7506 43.088V42.088H86.7506V43.088H87.7506ZM87.7506 53V54H88.7506V53H87.7506ZM83.7386 53V30.32H81.7386V53H83.7386ZM82.7386 31.32H87.7506V29.32H82.7386V31.32ZM86.7506 30.32V39.504H88.7506V30.32H86.7506ZM87.7506 40.504H91.2506V38.504H87.7506V40.504ZM92.2506 39.504V30.32H90.2506V39.504H92.2506ZM91.2506 31.32H96.2906V29.32H91.2506V31.32ZM95.2906 30.32V53H97.2906V30.32H95.2906ZM96.2906 52H91.2506V54H96.2906V52ZM92.2506 53V43.088H90.2506V53H92.2506ZM91.2506 42.088H87.7506V44.088H91.2506V42.088ZM86.7506 43.088V53H88.7506V43.088H86.7506ZM87.7506 52H82.7386V54H87.7506V52ZM98.6525 53L97.6698 52.8144L97.4459 54H98.6525V53ZM102.936 30.32V29.32H102.108L101.954 30.1344L102.936 30.32ZM108.648 30.32L109.632 30.1367L109.479 29.32H108.648V30.32ZM112.876 53V54H114.08L113.86 52.8167L112.876 53ZM108.256 53L107.269 53.156L107.402 54H108.256V53ZM107.5 48.212L108.488 48.056L108.355 47.212H107.5V48.212ZM104.168 48.212V47.212H103.319L103.182 48.0504L104.168 48.212ZM103.384 53V54H104.234L104.371 53.1616L103.384 53ZM104.616 45.216L103.626 45.0812L103.471 46.216H104.616V45.216ZM107.024 45.216V46.216H108.17L108.015 45.0812L107.024 45.216ZM105.82 36.368L106.811 36.2332H104.83L105.82 36.368ZM99.6351 53.1856L103.919 30.5056L101.954 30.1344L97.6698 52.8144L99.6351 53.1856ZM102.936 31.32H108.648V29.32H102.936V31.32ZM107.665 30.5033L111.893 53.1833L113.86 52.8167L109.632 30.1367L107.665 30.5033ZM112.876 52H108.256V54H112.876V52ZM109.244 52.844L108.488 48.056L106.513 48.368L107.269 53.156L109.244 52.844ZM107.5 47.212H104.168V49.212H107.5V47.212ZM103.182 48.0504L102.398 52.8384L104.371 53.1616L105.155 48.3736L103.182 48.0504ZM103.384 52H98.6525V54H103.384V52ZM104.616 46.216H107.024V44.216H104.616V46.216ZM108.015 45.0812L106.811 36.2332L104.83 36.5028L106.034 45.3508L108.015 45.0812ZM104.83 36.2332L103.626 45.0812L105.607 45.3508L106.811 36.5028L104.83 36.2332Z" fill="black" mask="url(#path-6-outside-2_4_2)"/>
<mask id="path-8-outside-3_4_2" maskUnits="userSpaceOnUse" x="48" y="29" width="16" height="26" fill="black">
<rect fill="white" x="48" y="29" width="16" height="26"/>
<path d="M55.9729 53.336C54.2742 53.336 52.9302 53.0373 51.9409 52.44C50.9515 51.8427 50.2422 50.984 49.8129 49.864C49.3835 48.744 49.1689 47.4093 49.1689 45.86V37.432C49.1689 35.864 49.3835 34.5293 49.8129 33.428C50.2422 32.3267 50.9515 31.4867 51.9409 30.908C52.9302 30.3107 54.2742 30.012 55.9729 30.012C57.6902 30.012 59.0435 30.3107 60.0329 30.908C61.0409 31.4867 61.7595 32.3267 62.1889 33.428C62.6182 34.5293 62.8329 35.864 62.8329 37.432V45.86C62.8329 47.4093 62.6182 48.744 62.1889 49.864C61.7595 50.984 61.0409 51.8427 60.0329 52.44C59.0435 53.0373 57.6902 53.336 55.9729 53.336ZM55.9729 49.78C56.4955 49.78 56.8782 49.6493 57.1209 49.388C57.3635 49.1267 57.5222 48.7907 57.5969 48.38C57.6715 47.9693 57.7089 47.5493 57.7089 47.12V36.2C57.7089 35.752 57.6715 35.332 57.5969 34.94C57.5222 34.5293 57.3635 34.1933 57.1209 33.932C56.8782 33.6707 56.4955 33.54 55.9729 33.54C55.4875 33.54 55.1235 33.6707 54.8809 33.932C54.6382 34.1933 54.4795 34.5293 54.4049 34.94C54.3302 35.332 54.2929 35.752 54.2929 36.2V47.12C54.2929 47.5493 54.3209 47.9693 54.3769 48.38C54.4515 48.7907 54.6009 49.1267 54.8249 49.388C55.0675 49.6493 55.4502 49.78 55.9729 49.78Z"/>
</mask>
<path d="M55.9729 53.336C54.2742 53.336 52.9302 53.0373 51.9409 52.44C50.9515 51.8427 50.2422 50.984 49.8129 49.864C49.3835 48.744 49.1689 47.4093 49.1689 45.86V37.432C49.1689 35.864 49.3835 34.5293 49.8129 33.428C50.2422 32.3267 50.9515 31.4867 51.9409 30.908C52.9302 30.3107 54.2742 30.012 55.9729 30.012C57.6902 30.012 59.0435 30.3107 60.0329 30.908C61.0409 31.4867 61.7595 32.3267 62.1889 33.428C62.6182 34.5293 62.8329 35.864 62.8329 37.432V45.86C62.8329 47.4093 62.6182 48.744 62.1889 49.864C61.7595 50.984 61.0409 51.8427 60.0329 52.44C59.0435 53.0373 57.6902 53.336 55.9729 53.336ZM55.9729 49.78C56.4955 49.78 56.8782 49.6493 57.1209 49.388C57.3635 49.1267 57.5222 48.7907 57.5969 48.38C57.6715 47.9693 57.7089 47.5493 57.7089 47.12V36.2C57.7089 35.752 57.6715 35.332 57.5969 34.94C57.5222 34.5293 57.3635 34.1933 57.1209 33.932C56.8782 33.6707 56.4955 33.54 55.9729 33.54C55.4875 33.54 55.1235 33.6707 54.8809 33.932C54.6382 34.1933 54.4795 34.5293 54.4049 34.94C54.3302 35.332 54.2929 35.752 54.2929 36.2V47.12C54.2929 47.5493 54.3209 47.9693 54.3769 48.38C54.4515 48.7907 54.6009 49.1267 54.8249 49.388C55.0675 49.6493 55.4502 49.78 55.9729 49.78Z" fill="#ECECEC"/>
<path d="M51.9409 52.44L51.424 53.2961L51.9409 52.44ZM49.8129 33.428L48.8812 33.0648H48.8812L49.8129 33.428ZM51.9409 30.908L52.4458 31.7713L52.4577 31.7641L51.9409 30.908ZM60.0329 30.908L59.516 31.7641L59.5254 31.7698L59.535 31.7753L60.0329 30.908ZM62.1889 33.428L61.2572 33.7912L62.1889 33.428ZM62.1889 49.864L61.2551 49.5061L62.1889 49.864ZM60.0329 52.44L59.5231 51.5797L59.516 51.5839L60.0329 52.44ZM57.1209 49.388L56.3881 48.7075L56.3881 48.7076L57.1209 49.388ZM57.5969 48.38L58.5807 48.5589V48.5589L57.5969 48.38ZM57.5969 34.94L56.613 35.1189L56.6145 35.1271L57.5969 34.94ZM57.1209 33.932L56.3881 34.6124V34.6124L57.1209 33.932ZM54.8809 33.932L55.6137 34.6124L55.6137 34.6124L54.8809 33.932ZM54.4049 34.94L55.3872 35.1271L55.3887 35.1189L54.4049 34.94ZM54.3769 48.38L53.386 48.5151L53.389 48.5371L53.393 48.5589L54.3769 48.38ZM54.8249 49.388L54.0656 50.0388L54.0786 50.0539L54.0921 50.0685L54.8249 49.388ZM55.9729 52.336C54.3762 52.336 53.2344 52.0529 52.4577 51.5839L51.424 53.2961C52.626 54.0218 54.1722 54.336 55.9729 54.336V52.336ZM52.4577 51.5839C51.6666 51.1062 51.0995 50.4267 50.7466 49.5061L48.8791 50.2219C49.3849 51.5413 50.2365 52.5791 51.424 53.2961L52.4577 51.5839ZM50.7466 49.5061C50.3718 48.5282 50.1689 47.3209 50.1689 45.86H48.1689C48.1689 47.4977 48.3953 48.9598 48.8791 50.2219L50.7466 49.5061ZM50.1689 45.86V37.432H48.1689V45.86H50.1689ZM50.1689 37.432C50.1689 35.95 50.3725 34.7458 50.7446 33.7912L48.8812 33.0648C48.3946 34.3129 48.1689 35.778 48.1689 37.432H50.1689ZM50.7446 33.7912C51.0948 32.8928 51.6575 32.2323 52.4458 31.7712L51.436 30.0448C50.2456 30.7411 49.3896 31.7606 48.8812 33.0648L50.7446 33.7912ZM52.4577 31.7641C53.2344 31.2951 54.3762 31.012 55.9729 31.012V29.012C54.1722 29.012 52.626 29.3262 51.424 30.0519L52.4577 31.7641ZM55.9729 31.012C57.5906 31.012 58.7408 31.296 59.516 31.7641L60.5497 30.0519C59.3463 29.3253 57.7898 29.012 55.9729 29.012V31.012ZM59.535 31.7753C60.3415 32.2382 60.9092 32.8985 61.2572 33.7912L63.1206 33.0648C62.6099 31.7548 61.7403 30.7351 60.5307 30.0407L59.535 31.7753ZM61.2572 33.7912C61.6293 34.7458 61.8329 35.95 61.8329 37.432H63.8329C63.8329 35.778 63.6071 34.3129 63.1206 33.0648L61.2572 33.7912ZM61.8329 37.432V45.86H63.8329V37.432H61.8329ZM61.8329 45.86C61.8329 47.3209 61.63 48.5282 61.2551 49.5061L63.1226 50.2219C63.6065 48.9598 63.8329 47.4977 63.8329 45.86H61.8329ZM61.2551 49.5061C60.9044 50.421 60.3323 51.1002 59.5231 51.5797L60.5427 53.3003C61.7495 52.5851 62.6147 51.547 63.1226 50.2219L61.2551 49.5061ZM59.516 51.5839C58.7408 52.052 57.5906 52.336 55.9729 52.336V54.336C57.7898 54.336 59.3463 54.0227 60.5497 53.2961L59.516 51.5839ZM55.9729 50.78C56.643 50.78 57.3482 50.6128 57.8537 50.0685L56.3881 48.7076C56.4082 48.6859 56.3481 48.78 55.9729 48.78V50.78ZM57.8537 50.0685C58.247 49.6449 58.4779 49.1247 58.5807 48.5589L56.613 48.2011C56.5665 48.4566 56.4801 48.6085 56.3881 48.7075L57.8537 50.0685ZM58.5807 48.5589C58.6664 48.0875 58.7089 47.6076 58.7089 47.12H56.7089C56.7089 47.4911 56.6766 47.8511 56.613 48.2011L58.5807 48.5589ZM58.7089 47.12V36.2H56.7089V47.12H58.7089ZM58.7089 36.2C58.7089 35.6967 58.667 35.2135 58.5792 34.7529L56.6145 35.1271C56.6761 35.4505 56.7089 35.8073 56.7089 36.2H58.7089ZM58.5807 34.7611C58.4779 34.1953 58.247 33.6751 57.8537 33.2515L56.3881 34.6124C56.4801 34.7115 56.5665 34.8634 56.613 35.1189L58.5807 34.7611ZM57.8537 33.2515C57.3482 32.7072 56.643 32.54 55.9729 32.54V34.54C56.3481 34.54 56.4082 34.6341 56.3881 34.6124L57.8537 33.2515ZM55.9729 32.54C55.3136 32.54 54.6408 32.721 54.1481 33.2515L55.6137 34.6124C55.6171 34.6088 55.6293 34.5951 55.6737 34.5792C55.7237 34.5613 55.8172 34.54 55.9729 34.54V32.54ZM54.1481 33.2515C53.7548 33.6751 53.5239 34.1953 53.421 34.7611L55.3887 35.1189C55.4352 34.8634 55.5217 34.7115 55.6137 34.6124L54.1481 33.2515ZM53.4225 34.7529C53.3348 35.2135 53.2929 35.6967 53.2929 36.2H55.2929C55.2929 35.8073 55.3256 35.4505 55.3872 35.1271L53.4225 34.7529ZM53.2929 36.2V47.12H55.2929V36.2H53.2929ZM53.2929 47.12C53.2929 47.5929 53.3237 48.0581 53.386 48.5151L55.3677 48.2449C55.318 47.8806 55.2929 47.5058 55.2929 47.12H53.2929ZM53.393 48.5589C53.4927 49.1069 53.704 49.6169 54.0656 50.0388L55.5841 48.7372C55.4978 48.6365 55.4104 48.4744 55.3607 48.2011L53.393 48.5589ZM54.0921 50.0685C54.5975 50.6128 55.3028 50.78 55.9729 50.78V48.78C55.5977 48.78 55.5376 48.6859 55.5577 48.7076L54.0921 50.0685Z" fill="black" mask="url(#path-8-outside-3_4_2)"/>
</svg>
