<svg width="100" height="100" viewBox="0 0 100 100" fill="none" xmlns="http://www.w3.org/2000/svg">
<path d="M45.3125 23.4375C45.3125 20.8398 47.4023 18.75 50 18.75C52.5977 18.75 54.6875 20.8398 54.6875 23.4375V47.5L71.3477 58.5938C73.4961 60.0391 74.082 62.9492 72.4805 65.0977C71.2109 67.2461 68.3008 67.832 66.1523 66.2305L47.4023 53.7305C46.0938 53.0273 45.3125 51.5625 45.3125 49.8242V23.4375ZM50 0C77.6172 0 100 22.3828 100 50C100 77.6172 77.6172 100 50 100C22.3828 100 0 77.6172 0 50C0 22.3828 22.3828 0 50 0ZM9.375 50C9.375 72.4414 27.5586 90.625 50 90.625C72.4414 90.625 90.625 72.4414 90.625 50C90.625 27.5586 72.4414 9.375 50 9.375C27.5586 9.375 9.375 27.5586 9.375 50Z" fill="white"/>
</svg>
