<svg width="60" height="60" viewBox="0 0 60 60" fill="none" xmlns="http://www.w3.org/2000/svg">
<path d="M27.1875 14.0625C27.1875 12.5039 28.4414 11.25 30 11.25C31.5586 11.25 32.8125 12.5039 32.8125 14.0625V28.5L42.8086 35.1562C44.0977 36.0234 44.4492 37.7695 43.4883 39.0586C42.7266 40.3477 40.9805 40.6992 39.6914 39.7383L28.4414 32.2383C27.6562 31.8164 27.1875 30.9375 27.1875 29.8945V14.0625ZM30 0C46.5703 0 60 13.4297 60 30C60 46.5703 46.5703 60 30 60C13.4297 60 0 46.5703 0 30C0 13.4297 13.4297 0 30 0ZM5.625 30C5.625 43.4648 16.5352 54.375 30 54.375C43.4648 54.375 54.375 43.4648 54.375 30C54.375 16.5352 43.4648 5.625 30 5.625C16.5352 5.625 5.625 16.5352 5.625 30Z" fill="black"/>
</svg>
