<svg width="60" height="60" viewBox="0 0 60 60" fill="none" xmlns="http://www.w3.org/2000/svg">
<path d="M50 35.625C50 37.6957 48.5073 39.375 46.6667 39.375H22.7292C22.0833 40.3594 21.6667 41.5781 21.6667 42.8789C21.6667 46.1133 24.0104 48.75 26.8854 48.75H31.9521C34.0698 48.75 36.1448 47.7832 37.6427 46.0992C38.9448 44.6344 41.0542 44.6344 42.3562 46.0992C43.6583 47.5641 43.6583 49.9371 42.3562 51.402C39.4896 54.5273 35.8854 56.25 31.9583 56.25H26.8854C20.3323 56.25 15 50.25 15 42.8789C15 41.6836 15.1518 40.5082 15.4282 39.3762H13.3333C11.4927 39.3762 10 37.6969 10 35.6262C10 33.5555 11.4927 31.8762 13.3333 31.8762H20.174C20.3373 31.7498 20.4883 31.6072 20.6579 31.4898L26.1146 28.125H13.3333C11.4927 28.125 10 26.4457 10 24.375C10 22.3043 11.4927 20.625 13.3333 20.625H37.2708C37.8229 19.6406 38.3333 18.4219 38.3333 17.1211C38.3333 13.8867 35.9896 11.25 33.1146 11.25H28.0521C25.9271 11.25 23.8542 12.2227 22.3542 13.8984C21.0521 15.3633 18.9427 15.3633 17.6406 13.8984C16.3385 12.4336 16.3385 10.0605 17.6406 8.5957C20.4167 5.47148 24.1146 3.75 28.0521 3.75H33.1187C39.6667 3.75 45 9.74883 45 17.1211C45 18.3164 44.8482 19.4918 44.5718 20.6238H46.6667C48.5073 20.6238 50 22.3031 50 24.3738C50 26.4445 48.5073 28.1238 46.6667 28.1238H39.826C39.6627 28.2502 39.5117 28.3928 39.3421 28.5102L33.8854 31.875H46.6667C48.5104 31.875 50 33.5508 50 35.625Z" fill="black"/>
</svg>
