<svg width="100" height="100" viewBox="0 0 100 100" fill="none" xmlns="http://www.w3.org/2000/svg">
<path d="M97.5593 85.7759L76.405 64.6215C80.7758 58.0339 83.3342 50.1464 83.3342 41.6671C83.3342 18.6919 64.6423 0 41.6671 0C18.6919 0 0 18.6919 0 41.6671C0 64.6423 18.6919 83.3342 41.6671 83.3342C50.1464 83.3342 58.0339 80.7758 64.6215 76.405L85.7759 97.5593C89.0259 100.814 94.3093 100.814 97.5593 97.5593C100.814 94.3051 100.814 89.0301 97.5593 85.7759ZM12.5001 41.6671C12.5001 25.5836 25.5836 12.5001 41.6671 12.5001C57.7506 12.5001 70.8341 25.5836 70.8341 41.6671C70.8341 57.7506 57.7506 70.8341 41.6671 70.8341C25.5836 70.8341 12.5001 57.7506 12.5001 41.6671Z" fill="white"/>
</svg>
